<?xml version="1.0" encoding="UTF-8" standalone="no"?>
<!-- Created with Inkscape (http://www.inkscape.org/) -->

<svg
   width="48"
   height="48"
   viewBox="0 0 12.7 12.7"
   version="1.1"
   id="svg308"
   inkscape:version="1.1.1 (3bf5ae0d25, 2021-09-20)"
   sodipodi:docname="kettlebell.svg"
   xmlns:inkscape="http://www.inkscape.org/namespaces/inkscape"
   xmlns:sodipodi="http://sodipodi.sourceforge.net/DTD/sodipodi-0.dtd"
   xmlns="http://www.w3.org/2000/svg"
   xmlns:svg="http://www.w3.org/2000/svg">
  <sodipodi:namedview
     id="namedview310"
     pagecolor="#ffffff"
     bordercolor="#666666"
     borderopacity="1.0"
     inkscape:pageshadow="2"
     inkscape:pageopacity="0.0"
     inkscape:pagecheckerboard="true"
     inkscape:document-units="mm"
     showgrid="false"
     units="px"
     inkscape:zoom="12.443434"
     inkscape:cx="20.452553"
     inkscape:cy="40.463106"
     inkscape:window-width="2560"
     inkscape:window-height="1340"
     inkscape:window-x="0"
     inkscape:window-y="0"
     inkscape:window-maximized="1"
     inkscape:current-layer="layer1" />
  <defs
     id="defs305" />
  <g
     inkscape:label="Layer 1"
     inkscape:groupmode="layer"
     id="layer1"
     style="display:inline;opacity:1">
    <path
       d="m 5.0309012,2.478473 h 2.6381793 c 0.6952869,0 1.2842289,0.5687694 1.2803748,1.2640215 C 8.947905,4.0234767 8.8535957,4.2828989 8.6956932,4.491631 8.5026191,4.7469209 8.1543516,4.8213236 7.8670496,4.6802248 7.4093125,4.4554184 6.894426,4.3291094 6.3499947,4.3291094 c -0.5444072,0 -1.059293,0.126309 -1.5170448,0.3511154 C 4.5456626,4.8213236 4.1973975,4.7469186 4.0043141,4.491631 3.8464077,4.2828989 3.7521101,4.0235116 3.7505513,3.7424945 3.7466755,3.0472424 4.3356391,2.478473 5.0309012,2.478473 Z M 9.9495767,3.721767 C 9.9422128,2.4757646 8.9093894,1.4783176 7.6633521,1.4783176 H 5.0366544 c -1.2460264,0 -2.2788279,0.997447 -2.2862321,2.2434494 -0.00388,0.6513321 0.2698735,1.2396485 0.7093419,1.6542307 0.1252222,0.118149 0.1454427,0.3082721 0.047943,0.4501693 C 3.1342055,6.369696 2.912516,7.0256798 2.9039855,7.7329794 2.8810411,9.6351395 4.4231798,11.208335 6.3254124,11.221597 8.2400374,11.23493 9.796291,9.6869055 9.796291,7.7754058 9.796291,7.0517194 9.5731497,6.3801807 9.1920035,5.8257151 9.0945803,5.6840264 9.115132,5.4940436 9.2401945,5.3760318 9.6797055,4.9614504 9.9534657,4.3730991 9.9495775,3.721767"
       style="fill:#ffffff;fill-opacity:1;fill-rule:nonzero;stroke:none;stroke-width:0.00347192"
       id="path267" />
  </g>
</svg>
